<?xml version="1.0" encoding="utf-8"?>
<!-- Generator: Adobe Illustrator 16.0.0, SVG Export Plug-In . SVG Version: 6.00 Build 0)  -->
<!DOCTYPE svg PUBLIC "-//W3C//DTD SVG 1.1//EN" "http://www.w3.org/Graphics/SVG/1.1/DTD/svg11.dtd">
<svg version="1.1" id="Capa_1" xmlns="http://www.w3.org/2000/svg" xmlns:xlink="http://www.w3.org/1999/xlink" x="0px" y="0px"
	 width="152.426px" height="56.545px" viewBox="0 0 152.426 56.545" enable-background="new 0 0 152.426 56.545"
	 xml:space="preserve">
<path fill="#000000" d="M8.211,15.568c0.689-0.347,1.519-0.073,1.866,0.616l0.469,0.93c0.347,0.69,0.073,1.519-0.616,1.867
	l-5.274,2.656l3.264,6.48l4.343-2.188c0.689-0.347,1.519-0.073,1.866,0.616l0.468,0.931c0.348,0.688,0.074,1.519-0.615,1.866
	L9.64,31.53l3.281,6.514l5.273-2.656c0.69-0.348,1.519-0.073,1.866,0.615l0.469,0.932c0.347,0.689,0.074,1.52-0.616,1.866
	l-7.445,3.749c-0.689,0.348-1.519,0.074-1.866-0.615L0.15,21.184c-0.347-0.69-0.074-1.519,0.616-1.866L8.211,15.568z"/>
<path fill="#000000" d="M32.383,32.125c0.279,0.72-0.074,1.519-0.794,1.798l-7.666,2.971c-0.719,0.277-1.519-0.075-1.797-0.795
	l-8.394-21.667c-0.279-0.72,0.074-1.519,0.794-1.798l1.044-0.404c0.683-0.265,1.482,0.088,1.761,0.808l7.515,19.398l5.363-2.077
	c0.72-0.278,1.519,0.073,1.798,0.794L32.383,32.125z"/>
<path fill="#000000" d="M29.244,8.506c-0.194-0.747,0.247-1.5,0.994-1.695l9.786-2.551c0.747-0.195,1.5,0.247,1.695,0.994
	l0.273,1.046c0.195,0.747-0.247,1.5-0.994,1.695l-3.063,0.799l5.238,20.095c0.195,0.746-0.247,1.5-0.994,1.694l-1.008,0.263
	c-0.747,0.195-1.501-0.246-1.695-0.994L34.237,9.758l-3.025,0.789c-0.747,0.195-1.5-0.247-1.695-0.994L29.244,8.506z"/>
<path fill="#000000" d="M44.3,11.059c-0.779-4.757,0.87-7.701,4.985-8.375c4.152-0.68,6.611,1.553,7.396,6.347l1.749,10.683
	c0.488,2.982-0.021,4.848-0.999,6.21c-1.048,1.412-2.584,1.974-3.981,2.202c-1.359,0.223-2.994,0.181-4.437-0.824
	c-1.362-0.978-2.476-2.579-2.965-5.561L44.3,11.059z M49.823,21.123c0.408,2.491,1.392,3.532,3.016,3.266
	c1.585-0.259,2.236-1.49,1.816-4.057L52.906,9.649c-0.414-2.528-1.386-3.493-3.009-3.228c-1.661,0.272-2.225,1.566-1.823,4.019
	L49.823,21.123z"/>
<path fill="#000000" d="M73.388,24.677c0.044,0.771-0.538,1.422-1.309,1.465L71,26.204c-0.771,0.044-1.423-0.538-1.467-1.308
	l-0.365-6.436c-0.11-1.926-1.25-2.944-3.139-2.837l-1.734,0.099l0.537,9.441c0.044,0.77-0.538,1.422-1.27,1.464l-1.079,0.061
	c-0.771,0.044-1.423-0.538-1.466-1.308L59.699,2.181c-0.044-0.771,0.538-1.422,1.308-1.466l4.856-0.276
	c4.74-0.27,6.533,2.026,6.827,7.189c0.135,2.389-0.179,4.341-1.306,5.603c-0.109,0.122-0.181,0.204-0.29,0.326
	c1.185,1.131,1.814,2.68,1.928,4.684L73.388,24.677z M64.075,11.829l1.734-0.098c2.158-0.123,3.214-1.265,3.065-3.886
	c-0.149-2.62-0.788-3.666-2.792-3.553L63.654,4.43L64.075,11.829z"/>
<path fill="#000000" d="M88.176,25.175c-0.041,0.771-0.69,1.355-1.461,1.314l-1.079-0.058c-0.771-0.04-1.355-0.69-1.314-1.461
	l0.343-6.436c0.102-1.927-0.921-3.064-2.809-3.164l-1.734-0.092l-0.502,9.443c-0.041,0.77-0.689,1.354-1.423,1.316l-1.079-0.058
	c-0.771-0.04-1.354-0.69-1.313-1.461l1.231-23.202c0.041-0.771,0.69-1.355,1.461-1.314l4.857,0.258
	c4.74,0.251,6.271,2.729,5.996,7.894c-0.126,2.389-0.653,4.293-1.911,5.425c-0.122,0.11-0.203,0.183-0.325,0.292
	c1.056,1.254,1.511,2.863,1.404,4.868L88.176,25.175z M80.329,11.385l1.733,0.092c2.158,0.115,3.333-0.905,3.473-3.526
	c0.14-2.621-0.382-3.731-2.386-3.837l-2.428-0.129L80.329,11.385z"/>
<path fill="#000000" d="M104.022,2.568c0.762,0.122,1.275,0.829,1.153,1.591l-0.163,1.029c-0.122,0.762-0.829,1.275-1.592,1.153
	l-5.832-0.928l-1.141,7.165l4.802,0.765c0.764,0.121,1.275,0.829,1.154,1.591l-0.164,1.029c-0.121,0.763-0.828,1.275-1.591,1.154
	l-4.802-0.765l-1.148,7.203l5.832,0.929c0.762,0.122,1.275,0.829,1.153,1.591l-0.163,1.029c-0.122,0.762-0.829,1.275-1.591,1.153
	l-8.233-1.311c-0.763-0.121-1.274-0.828-1.154-1.591L94.198,2.41c0.122-0.762,0.829-1.275,1.591-1.154L104.022,2.568z"/>
<path fill="#000000" d="M103.815,21.083c0.184-0.71,0.937-1.153,1.684-0.959l1.047,0.27c0.71,0.184,1.189,0.946,1.006,1.656
	l-0.135,0.523c-0.396,1.532-0.301,2.394,0.031,2.958c0.249,0.424,0.764,0.596,1.248,0.722c1.346,0.348,2.308-0.44,2.867-2.607
	l4.4-17c0.193-0.747,0.945-1.19,1.692-0.997l1.047,0.271c0.71,0.184,1.153,0.936,0.959,1.684l-4.399,17
	c-1.16,4.482-3.637,6.354-7.523,5.348c-3.886-1.006-5.22-3.862-4.059-8.346L103.815,21.083z"/>
<path fill="#000000" d="M122.184,14.64c1.729-4.545,4.66-6.279,8.592-4.784c3.969,1.509,4.984,4.703,3.241,9.285l-3.883,10.209
	c-1.084,2.85-2.472,4.221-4.016,4.914c-1.629,0.701-3.254,0.414-4.589-0.094c-1.3-0.494-2.704-1.358-3.456-2.965
	c-0.693-1.545-0.855-3.506,0.229-6.355L122.184,14.64z M121.91,26.222c-0.905,2.381-0.573,3.787,0.978,4.377
	c1.516,0.577,2.707-0.168,3.641-2.621l3.882-10.209c0.92-2.417,0.56-3.752-0.991-4.341c-1.587-0.604-2.734,0.24-3.626,2.585
	L121.91,26.222z"/>
<path fill="#000000" d="M138.169,40.686l1.35-14.256l-5.863,11.307c-0.355,0.686-1.223,0.932-1.873,0.594l-0.993-0.516
	c-0.652-0.338-0.95-1.188-0.594-1.873l10.696-20.626c0.356-0.686,1.223-0.932,1.874-0.595l0.822,0.427
	c0.445,0.231,0.798,0.892,0.74,1.34l-1.352,14.257l5.864-11.307c0.356-0.685,1.188-0.949,1.873-0.594l0.96,0.498
	c0.686,0.355,0.949,1.188,0.594,1.873l-10.697,20.627"/>
<path fill="#000000" d="M46.498,56.545c-0.253,0-0.454-0.201-0.454-0.453v-7.598c0-0.252,0.201-0.453,0.454-0.453h1.287
	c1.514,0,2.221,0.857,2.221,2.497v3.509c0,1.641-0.707,2.498-2.221,2.498H46.498z M47.292,49.29v6.008h0.492
	c0.669,0,0.946-0.404,0.946-1.25v-3.509c0-0.845-0.277-1.249-0.946-1.249H47.292z"/>
<path fill="#000000" d="M56.101,48.041c0.253,0,0.454,0.202,0.454,0.454v0.342c0,0.252-0.201,0.453-0.454,0.453H54.17v2.372h1.591
	c0.252,0,0.454,0.202,0.454,0.455v0.341c0,0.252-0.202,0.454-0.454,0.454H54.17v2.386h1.931c0.253,0,0.454,0.201,0.454,0.453v0.342
	c0,0.252-0.201,0.453-0.454,0.453h-2.726c-0.252,0-0.454-0.201-0.454-0.453v-7.598c0-0.252,0.202-0.454,0.454-0.454H56.101z"/>
<path fill="#000000" d="M58.877,53.909c0-0.252,0.202-0.454,0.454-0.454h0.354c0.239,0,0.454,0.202,0.454,0.454v0.164
	c0,0.605,0.113,0.896,0.29,1.047c0.139,0.139,0.354,0.164,0.53,0.164c0.53,0,0.82-0.227,0.82-0.896c0-0.593-0.58-1.06-1.199-1.539
	v0.014c-0.832-0.657-1.703-1.338-1.703-2.588c0-1.426,0.744-2.246,2.082-2.246c1.363,0,2.082,0.871,2.082,2.474v0.177
	c0,0.252-0.202,0.454-0.454,0.454h-0.353c-0.253,0-0.455-0.202-0.455-0.454v-0.177c0-0.833-0.265-1.212-0.82-1.212
	c-0.53,0-0.82,0.29-0.82,0.947c0,0.643,0.618,1.135,1.237,1.615h-0.013c0.833,0.643,1.678,1.287,1.678,2.51
	c0,1.414-0.744,2.172-2.082,2.172c-1.388,0-2.082-0.809-2.082-2.461V53.909z"/>
<path fill="#000000" d="M66.272,56.545c-0.252,0-0.454-0.201-0.454-0.453v-7.598c0-0.252,0.202-0.453,0.454-0.453h1.287
	c1.514,0,2.221,0.857,2.221,2.497v3.509c0,1.641-0.707,2.498-2.221,2.498H66.272z M67.067,49.29v6.008h0.492
	c0.669,0,0.946-0.404,0.946-1.25v-3.509c0-0.845-0.277-1.249-0.946-1.249H67.067z"/>
<path fill="#000000" d="M75.876,48.041c0.252,0,0.455,0.202,0.455,0.454v0.342c0,0.252-0.202,0.453-0.455,0.453h-1.931v2.372h1.59
	c0.252,0,0.455,0.202,0.455,0.455v0.341c0,0.252-0.203,0.454-0.455,0.454h-1.59v2.386h1.931c0.252,0,0.455,0.201,0.455,0.453v0.342
	c0,0.252-0.202,0.453-0.455,0.453H73.15c-0.252,0-0.454-0.201-0.454-0.453v-7.598c0-0.252,0.202-0.454,0.454-0.454H75.876z"/>
<path fill="#000000" d="M83.712,50.35c-0.202-0.139-0.252-0.43-0.101-0.631l1.161-1.502c0.051-0.075,0.252-0.176,0.353-0.176h0.354
	c0.253,0,0.454,0.201,0.454,0.453v7.598c0,0.252-0.201,0.453-0.454,0.453h-0.365c-0.24,0-0.442-0.201-0.442-0.453v-5.666
	l-0.062,0.062c-0.151,0.202-0.454,0.252-0.656,0.075L83.712,50.35z"/>
<path fill="#000000" d="M92.268,53.605c0,1.199-0.277,1.931-0.618,2.349c-0.391,0.479-0.883,0.592-1.249,0.592
	c-1.237,0-1.854-0.846-1.854-2.157v-0.013c0-0.24,0.201-0.454,0.441-0.454h0.365c0.253,0,0.455,0.214,0.455,0.454v0.013
	c0,0.593,0.214,0.908,0.593,0.908c0.214,0,0.404-0.202,0.492-0.466c0.126-0.379,0.101-1.111,0.101-1.478v-0.024
	c-0.113,0.215-0.429,0.34-0.743,0.34c-1.199,0-1.704-0.959-1.704-2.436v-0.707c0-0.63,0.139-1.197,0.403-1.627
	c0.342-0.568,0.82-0.857,1.451-0.857c1.173,0,1.867,0.818,1.867,2.232V53.605z M90.994,50.274c0-0.214-0.013-0.492-0.126-0.707
	c-0.076-0.164-0.227-0.277-0.467-0.277c-0.341,0-0.479,0.392-0.543,0.656c-0.025,0.164-0.05,0.379-0.05,0.58v0.707
	c0,0.82,0.202,1.186,0.593,1.186s0.593-0.467,0.593-1.172V50.274z"/>
<path fill="#000000" d="M98.401,52.293l0.052,0.062c0.29,0.404,0.454,0.984,0.454,1.754c0,1.641-0.606,2.436-1.981,2.436
	c-1.388,0-1.981-0.832-1.981-2.436c0-0.744,0.164-1.337,0.454-1.74c0.014-0.026,0.051-0.063,0.063-0.076l-0.063-0.076
	c-0.29-0.403-0.454-0.997-0.454-1.741c0-1.603,0.594-2.435,1.981-2.435c1.375,0,1.981,0.795,1.981,2.435
	c0,0.771-0.164,1.351-0.454,1.754L98.401,52.293z M96.925,51.663c0.505,0,0.719-0.342,0.719-1.187s-0.214-1.187-0.719-1.187
	c-0.492,0-0.719,0.342-0.719,1.187c0,0.492,0.062,0.808,0.188,0.997C96.497,51.599,96.672,51.663,96.925,51.663 M97.644,54.11
	c0-0.857-0.214-1.199-0.719-1.199c-0.492,0-0.719,0.342-0.719,1.199c0,0.846,0.227,1.188,0.719,1.188
	c0.265,0,0.429-0.077,0.517-0.19C97.582,54.918,97.644,54.588,97.644,54.11"/>
<path fill="#000000" d="M105.115,52.293l0.052,0.062c0.29,0.404,0.453,0.984,0.453,1.754c0,1.641-0.605,2.436-1.98,2.436
	c-1.388,0-1.981-0.832-1.981-2.436c0-0.744,0.164-1.337,0.454-1.74c0.013-0.026,0.051-0.063,0.063-0.076l-0.063-0.076
	c-0.29-0.403-0.454-0.997-0.454-1.741c0-1.603,0.594-2.435,1.981-2.435c1.375,0,1.98,0.795,1.98,2.435
	c0,0.771-0.163,1.351-0.453,1.754L105.115,52.293z M103.639,51.663c0.505,0,0.719-0.342,0.719-1.187s-0.214-1.187-0.719-1.187
	c-0.493,0-0.72,0.342-0.72,1.187c0,0.492,0.062,0.808,0.189,0.997C103.21,51.599,103.386,51.663,103.639,51.663 M104.358,54.11
	c0-0.857-0.214-1.199-0.719-1.199c-0.493,0-0.72,0.342-0.72,1.199c0,0.846,0.227,1.188,0.72,1.188c0.265,0,0.429-0.077,0.517-0.19
	C104.295,54.918,104.358,54.588,104.358,54.11"/>
<path fill="#000000" d="M136.618,9.843c-0.412-0.016-0.821-0.174-1.146-0.478c-0.818-0.768-1.757-1.399-2.787-1.876
	c-1.046-0.484-2.15-0.793-3.285-0.917c-0.975-0.107-1.678-0.983-1.57-1.958c0.106-0.974,0.976-1.678,1.958-1.57
	c1.517,0.166,2.993,0.578,4.389,1.224c1.374,0.636,2.627,1.479,3.723,2.507c0.716,0.67,0.753,1.793,0.082,2.508
	C137.614,9.674,137.114,9.862,136.618,9.843"/>
</svg>
